<?xml version="1.0" encoding="UTF-8" standalone="no"?>
<!-- Created with Inkscape (http://www.inkscape.org/) -->

<svg
   width="28.716843mm"
   height="35.917191mm"
   viewBox="0 0 28.716843 35.917191"
   version="1.1"
   id="svg1"
   inkscape:export-filename="bitmap.svg"
   inkscape:export-xdpi="96"
   inkscape:export-ydpi="96"
   xmlns:inkscape="http://www.inkscape.org/namespaces/inkscape"
   xmlns:sodipodi="http://sodipodi.sourceforge.net/DTD/sodipodi-0.dtd"
   xmlns="http://www.w3.org/2000/svg"
   xmlns:svg="http://www.w3.org/2000/svg">
  <sodipodi:namedview
     id="namedview1"
     pagecolor="#ffffff"
     bordercolor="#666666"
     borderopacity="1.0"
     inkscape:showpageshadow="2"
     inkscape:pageopacity="0.0"
     inkscape:pagecheckerboard="0"
     inkscape:deskcolor="#d1d1d1"
     inkscape:document-units="mm" />
  <defs
     id="defs1" />
  <g
     inkscape:label="Layer 1"
     inkscape:groupmode="layer"
     id="layer1"
     transform="translate(-66.8724,-64.000227)">
    <path
       id="text1"
       style="font-size:42.3333px;line-height:1.25;font-family:'open sans';-inkscape-font-specification:'open sans';stroke-width:0.264583"
       d="m 78.641195,64.000228 c -0.423333,0 -0.747808,0.324474 -0.973584,0.973584 L 67.126652,91.305021 c -0.169333,0.366888 -0.254248,0.621117 -0.254248,0.762228 0,0.564442 0.507941,0.846459 1.523938,0.846459 h 4.106726 c 0.564442,0 0.917224,-0.05609 1.058333,-0.168981 0.169333,-0.141111 0.39474,-0.536348 0.676962,-1.185458 l 2.031917,-5.037418 h 2.674255 L 74.306059,98.37074 c -0.269095,0.687413 -0.351077,1.117473 -0.246497,1.289327 0.10458,0.171853 0.500628,0.257348 1.188041,0.257348 h 18.430917 0.730704 c 0.183066,-0.02864 0.388586,-0.114137 0.6165,-0.257348 0.227915,-0.143211 0.392083,-0.343734 0.492993,-0.601514 0.100911,-0.25778 0.09357,-0.458302 -0.02222,-0.601514 -0.115793,-0.143211 -0.259645,-0.214974 -0.431499,-0.214974 -0.160641,-0.02864 -0.398587,-0.04289 -0.713651,-0.04289 H 81.591402 l 4.571297,-11.677323 h 0.267684 l 2.159042,5.460648 c 0.28222,0.620888 0.606695,0.931209 0.973584,0.931209 0.253998,0 0.451617,-0.0844 0.592728,-0.253731 0.169333,-0.169333 0.254248,-0.366952 0.254248,-0.592728 l -0.211873,-0.719853 -2.9993,-7.473446 4.601269,-11.753804 c 0.280307,-0.716056 0.362806,-1.145599 0.247014,-1.288811 -0.07594,-0.171853 -0.457736,-0.257865 -1.14515,-0.257865 h -4.167704 c -0.687414,0 -1.150452,0.08601 -1.38958,0.257865 -0.239127,0.171854 -0.493132,0.601397 -0.762227,1.288811 L 83.545288,74.76908 79.614779,64.973812 C 79.473668,64.635146 79.33266,64.395587 79.191549,64.254476 79.07866,64.085143 78.895193,64.000228 78.641195,64.000228 Z m 0,3.175 1.778186,4.402832 -7.83208,19.642729 h -3.59823 z m 7.592301,5.117 h 3.780648 l -10.1415,25.906946 h -3.780648 z m -4.882906,1.57148 1.290877,3.215308 -3.033923,7.749398 h -2.659786 z" />
  </g>
</svg>
