<?xml version="1.0" encoding="us-ascii" standalone="no"?><svg xmlns="http://www.w3.org/2000/svg" xmlns:xlink="http://www.w3.org/1999/xlink" contentStyleType="text/css" height="384px" preserveAspectRatio="none" style="width:599px;height:384px;background:#FFFFFF;" version="1.1" viewBox="0 0 599 384" width="599px" zoomAndPan="magnify"><defs/><g><text fill="#000000" font-family="Open Sans" font-size="14" font-weight="bold" lengthAdjust="spacing" textLength="52.625" x="10" y="24.9639">commit</text><line style="stroke:#181818;stroke-width:1.5;" x1="40" x2="40" y1="69.5981" y2="69.5981"/><rect fill="none" height="29.0654" style="stroke:#181818;stroke-width:0.5;" width="34" x="64" y="55.0654"/><text fill="#000000" font-family="Open Sans" font-size="14" lengthAdjust="spacing" textLength="24" x="69" y="75.0293">doc</text><line style="stroke:#181818;stroke-width:1.5;" x1="40" x2="64" y1="69.5981" y2="69.5981"/><line style="stroke:#181818;stroke-width:1.5;" x1="98" x2="185" y1="69.5981" y2="69.5981"/><rect fill="none" height="29.0654" style="stroke:#181818;stroke-width:0.5;" width="59" x="64" y="94.1309"/><text fill="#000000" font-family="Open Sans" font-size="14" lengthAdjust="spacing" textLength="49" x="69" y="114.0947">feature</text><path d="M52,96.6636 C52,105.6636 55,108.6636 64,108.6636 " fill="none" style="stroke:#181818;stroke-width:1.5;"/><line style="stroke:#181818;stroke-width:1.5;" x1="123" x2="161" y1="108.6636" y2="108.6636"/><path d="M140,108.6636 L140,105.6636 L146,108.6636 L140,111.6636 L140,108.6636 " fill="#181818" style="stroke:#181818;stroke-width:1.5;"/><path d="M173,96.6636 C173,105.6636 170,108.6636 161,108.6636 " fill="none" style="stroke:#181818;stroke-width:1.5;"/><rect fill="none" height="29.0654" style="stroke:#181818;stroke-width:0.5;" width="26" x="64" y="133.1963"/><text fill="#000000" font-family="Open Sans" font-size="14" lengthAdjust="spacing" textLength="16" x="69" y="153.1602">fix</text><path d="M52,135.729 C52,144.729 55,147.729 64,147.729 " fill="none" style="stroke:#181818;stroke-width:1.5;"/><line style="stroke:#181818;stroke-width:1.5;" x1="90" x2="161" y1="147.729" y2="147.729"/><path d="M123.5,147.729 L123.5,144.729 L129.5,147.729 L123.5,150.729 L123.5,147.729 " fill="#181818" style="stroke:#181818;stroke-width:1.5;"/><path d="M173,135.729 C173,144.729 170,147.729 161,147.729 " fill="none" style="stroke:#181818;stroke-width:1.5;"/><rect fill="none" height="29.0654" style="stroke:#181818;stroke-width:0.5;" width="41" x="64" y="172.2617"/><text fill="#000000" font-family="Open Sans" font-size="14" lengthAdjust="spacing" textLength="31" x="69" y="192.2256">style</text><path d="M52,174.7944 C52,183.7944 55,186.7944 64,186.7944 " fill="none" style="stroke:#181818;stroke-width:1.5;"/><line style="stroke:#181818;stroke-width:1.5;" x1="105" x2="161" y1="186.7944" y2="186.7944"/><path d="M131,186.7944 L131,183.7944 L137,186.7944 L131,189.7944 L131,186.7944 " fill="#181818" style="stroke:#181818;stroke-width:1.5;"/><path d="M173,174.7944 C173,183.7944 170,186.7944 161,186.7944 " fill="none" style="stroke:#181818;stroke-width:1.5;"/><rect fill="none" height="29.0654" style="stroke:#181818;stroke-width:0.5;" width="97" x="64" y="211.3271"/><text fill="#000000" font-family="Open Sans" font-size="14" lengthAdjust="spacing" textLength="87" x="69" y="231.291">performance</text><path d="M52,213.8599 C52,222.8599 55,225.8599 64,225.8599 " fill="none" style="stroke:#181818;stroke-width:1.5;"/><line style="stroke:#181818;stroke-width:1.5;" x1="161" x2="161" y1="225.8599" y2="225.8599"/><path d="M173,213.8599 C173,222.8599 170,225.8599 161,225.8599 " fill="none" style="stroke:#181818;stroke-width:1.5;"/><rect fill="none" height="29.0654" style="stroke:#181818;stroke-width:0.5;" width="35" x="64" y="250.3926"/><text fill="#000000" font-family="Open Sans" font-size="14" lengthAdjust="spacing" textLength="25" x="69" y="270.3564">test</text><path d="M52,252.9253 C52,261.9253 55,264.9253 64,264.9253 " fill="none" style="stroke:#181818;stroke-width:1.5;"/><line style="stroke:#181818;stroke-width:1.5;" x1="99" x2="161" y1="264.9253" y2="264.9253"/><path d="M128,264.9253 L128,261.9253 L134,264.9253 L128,267.9253 L128,264.9253 " fill="#181818" style="stroke:#181818;stroke-width:1.5;"/><path d="M173,252.9253 C173,261.9253 170,264.9253 161,264.9253 " fill="none" style="stroke:#181818;stroke-width:1.5;"/><rect fill="none" height="29.0654" style="stroke:#181818;stroke-width:0.5;" width="27" x="64" y="289.458"/><text fill="#000000" font-family="Open Sans" font-size="14" lengthAdjust="spacing" textLength="17" x="69" y="309.4219">git</text><path d="M52,291.9907 C52,300.9907 55,303.9907 64,303.9907 " fill="none" style="stroke:#181818;stroke-width:1.5;"/><line style="stroke:#181818;stroke-width:1.5;" x1="91" x2="161" y1="303.9907" y2="303.9907"/><path d="M124,303.9907 L124,300.9907 L130,303.9907 L124,306.9907 L124,303.9907 " fill="#181818" style="stroke:#181818;stroke-width:1.5;"/><path d="M173,291.9907 C173,300.9907 170,303.9907 161,303.9907 " fill="none" style="stroke:#181818;stroke-width:1.5;"/><rect fill="none" height="29.0654" style="stroke:#181818;stroke-width:0.5;" width="45" x="64" y="328.5234"/><text fill="#000000" font-family="Open Sans" font-size="14" lengthAdjust="spacing" textLength="35" x="69" y="348.4873">build</text><line style="stroke:#181818;stroke-width:1.5;" x1="109" x2="161" y1="343.0562" y2="343.0562"/><path d="M133,343.0562 L133,340.0562 L139,343.0562 L133,346.0562 L133,343.0562 " fill="#181818" style="stroke:#181818;stroke-width:1.5;"/><path d="M52,331.0562 C52,340.0562 55,343.0562 64,343.0562 " fill="none" style="stroke:#181818;stroke-width:1.5;"/><line style="stroke:#181818;stroke-width:1.5;" x1="52" x2="52" y1="81.5981" y2="331.0562"/><path d="M40,69.5981 C49,69.5981 52,72.5981 52,81.5981 " fill="none" style="stroke:#181818;stroke-width:1.5;"/><path d="M173,331.0562 C173,340.0562 170,343.0562 161,343.0562 " fill="none" style="stroke:#181818;stroke-width:1.5;"/><line style="stroke:#181818;stroke-width:1.5;" x1="173" x2="173" y1="81.5981" y2="331.0562"/><path d="M173,81.5981 C173,72.5981 176,69.5981 185,69.5981 " fill="none" style="stroke:#181818;stroke-width:1.5;"/><line style="stroke:#181818;stroke-width:1.5;" x1="185" x2="205" y1="69.5981" y2="69.5981"/><path d="M213,61.5981 C213,67.5981 211,69.5981 205,69.5981 " fill="none" style="stroke:#181818;stroke-width:1.5;"/><line style="stroke:#181818;stroke-width:1.5;" x1="213" x2="213" y1="52.0654" y2="61.5981"/><path d="M213,52.0654 C213,46.0654 215,44.0654 221,44.0654 " fill="none" style="stroke:#181818;stroke-width:1.5;"/><line style="stroke:#181818;stroke-width:1.5;" x1="221" x2="373" y1="44.0654" y2="44.0654"/><path d="M279.8,44.0654 L279.8,41.0654 L285.8,44.0654 L279.8,47.0654 L279.8,44.0654 " fill="#181818" style="stroke:#181818;stroke-width:1.5;"/><path d="M381,61.5981 C381,67.5981 383,69.5981 389,69.5981 " fill="none" style="stroke:#181818;stroke-width:1.5;"/><line style="stroke:#181818;stroke-width:1.5;" x1="381" x2="381" y1="52.0654" y2="61.5981"/><path d="M373,44.0654 C379,44.0654 381,46.0654 381,52.0654 " fill="none" style="stroke:#181818;stroke-width:1.5;"/><line style="stroke:#181818;stroke-width:1.5;" x1="205" x2="220" y1="69.5981" y2="69.5981"/><line style="stroke:#181818;stroke-width:1.5;" x1="374" x2="389" y1="69.5981" y2="69.5981"/><line style="stroke:#181818;stroke-width:1.5;" x1="220" x2="220" y1="69.5981" y2="69.5981"/><rect fill="none" height="29.0654" style="stroke:#181818;stroke-width:0.5;" width="14" x="220" y="55.0654"/><text fill="#000000" font-family="Open Sans" font-size="14" lengthAdjust="spacing" textLength="4" x="225" y="75.0293">(</text><line style="stroke:#181818;stroke-width:1.5;" x1="234" x2="254" y1="69.5981" y2="69.5981"/><rect fill="#F1F1F1" height="29.0654" rx="5" ry="5" style="stroke:#181818;stroke-width:1.5;" width="86" x="254" y="55.0654"/><text fill="#000000" font-family="Open Sans" font-size="14" lengthAdjust="spacing" textLength="76" x="259" y="75.0293">component</text><line style="stroke:#181818;stroke-width:1.5;" x1="340" x2="360" y1="69.5981" y2="69.5981"/><rect fill="none" height="29.0654" style="stroke:#181818;stroke-width:0.5;" width="14" x="360" y="55.0654"/><text fill="#000000" font-family="Open Sans" font-size="14" lengthAdjust="spacing" textLength="4" x="365" y="75.0293">)</text><line style="stroke:#181818;stroke-width:1.5;" x1="389" x2="409" y1="69.5981" y2="69.5981"/><path d="M417,61.5981 C417,67.5981 415,69.5981 409,69.5981 " fill="none" style="stroke:#181818;stroke-width:1.5;"/><line style="stroke:#181818;stroke-width:1.5;" x1="417" x2="417" y1="52.0654" y2="61.5981"/><path d="M417,52.0654 C417,46.0654 419,44.0654 425,44.0654 " fill="none" style="stroke:#181818;stroke-width:1.5;"/><line style="stroke:#181818;stroke-width:1.5;" x1="425" x2="538" y1="44.0654" y2="44.0654"/><path d="M468.2,44.0654 L468.2,41.0654 L474.2,44.0654 L468.2,47.0654 L468.2,44.0654 " fill="#181818" style="stroke:#181818;stroke-width:1.5;"/><path d="M546,61.5981 C546,67.5981 548,69.5981 554,69.5981 " fill="none" style="stroke:#181818;stroke-width:1.5;"/><line style="stroke:#181818;stroke-width:1.5;" x1="546" x2="546" y1="52.0654" y2="61.5981"/><path d="M538,44.0654 C544,44.0654 546,46.0654 546,52.0654 " fill="none" style="stroke:#181818;stroke-width:1.5;"/><line style="stroke:#181818;stroke-width:1.5;" x1="409" x2="424" y1="69.5981" y2="69.5981"/><line style="stroke:#181818;stroke-width:1.5;" x1="539" x2="554" y1="69.5981" y2="69.5981"/><line style="stroke:#181818;stroke-width:1.5;" x1="424" x2="424" y1="69.5981" y2="69.5981"/><rect fill="none" height="29.0654" style="stroke:#181818;stroke-width:0.5;" width="15" x="424" y="55.0654"/><text fill="#000000" font-family="Open Sans" font-size="14" lengthAdjust="spacing" textLength="5" x="429" y="75.0293">[</text><line style="stroke:#181818;stroke-width:1.5;" x1="439" x2="459" y1="69.5981" y2="69.5981"/><rect fill="#F1F1F1" height="29.0654" rx="5" ry="5" style="stroke:#181818;stroke-width:1.5;" width="45" x="459" y="55.0654"/><text fill="#000000" font-family="Open Sans" font-size="14" lengthAdjust="spacing" textLength="35" x="464" y="75.0293">issue</text><line style="stroke:#181818;stroke-width:1.5;" x1="504" x2="524" y1="69.5981" y2="69.5981"/><rect fill="none" height="29.0654" style="stroke:#181818;stroke-width:0.5;" width="15" x="524" y="55.0654"/><text fill="#000000" font-family="Open Sans" font-size="14" lengthAdjust="spacing" textLength="5" x="529" y="75.0293">]</text><ellipse cx="14" cy="69.5981" fill="none" rx="4" ry="4" style="stroke:#181818;stroke-width:2.0;"/><ellipse cx="584" cy="69.5981" fill="#181818" rx="4" ry="4" style="stroke:#181818;stroke-width:1.0;"/><line style="stroke:#181818;stroke-width:1.5;" x1="18" x2="40" y1="69.5981" y2="69.5981"/><line style="stroke:#181818;stroke-width:1.5;" x1="554" x2="580" y1="69.5981" y2="69.5981"/><path d="M565,69.5981 L565,66.5981 L571,69.5981 L565,72.5981 L565,69.5981 " fill="#181818" style="stroke:#181818;stroke-width:1.5;"/><!--SRC=[HP1DQy9048Rl-ok6FIMGIerIsfI2MAsGAfNwSH4FQp89IvFPi3ih5VhZknfAJpFppDSxCt6iBEE9Ak6-D7NAgXPAh9Hlk3B4f5e4-T4XmKQHaw8mRQiPNY2IfIaa_82iKB6tsFlw-sOTNvgUT6WhOrj5HHypEhuvjUxjoUkcb7421nd91CA2pX0I9pAMnoiz1AgTyvY0FChZivWWbJV9Ojqeujrg2MUqJXk2uI2zJqU3fsZh4N8Vm0Y6uomTPkaOvhCjNDEnY1Rh9JZZRO5GQiTMdpo7_bZawgpWqnFh5ZEu7fxFtly0pEcihQ4so1FvVlLVy32-cuQtRD069R1VYLd_mz1Hc59JdS5k-tRtA9QAQg_gC1j9l9emrruoM4n_0G00]--></g></svg>