<?xml version="1.0" encoding="us-ascii" standalone="no"?><svg xmlns="http://www.w3.org/2000/svg" xmlns:xlink="http://www.w3.org/1999/xlink" contentStyleType="text/css" height="462px" preserveAspectRatio="none" style="width:653px;height:462px;background:#FFFFFF;" version="1.1" viewBox="0 0 653 462" width="653px" zoomAndPan="magnify"><defs/><g><text fill="#000000" font-family="Open Sans" font-size="14" font-weight="bold" lengthAdjust="spacing" textLength="52.625" x="10" y="24.9639">commit</text><line style="stroke:#181818;stroke-width:1.5;" x1="40" x2="40" y1="69.5981" y2="69.5981"/><rect fill="none" height="29.0654" style="stroke:#181818;stroke-width:0.5;" width="34" x="64" y="55.0654"/><text fill="#000000" font-family="Open Sans" font-size="14" lengthAdjust="spacing" textLength="24" x="69" y="75.0293">doc</text><line style="stroke:#181818;stroke-width:1.5;" x1="40" x2="64" y1="69.5981" y2="69.5981"/><line style="stroke:#181818;stroke-width:1.5;" x1="98" x2="160" y1="69.5981" y2="69.5981"/><rect fill="none" height="29.0654" style="stroke:#181818;stroke-width:0.5;" width="36" x="64" y="94.1309"/><text fill="#000000" font-family="Open Sans" font-size="14" lengthAdjust="spacing" textLength="26" x="69" y="114.0947">feat</text><path d="M52,96.6636 C52,105.6636 55,108.6636 64,108.6636 " fill="none" style="stroke:#181818;stroke-width:1.5;"/><line style="stroke:#181818;stroke-width:1.5;" x1="100" x2="136" y1="108.6636" y2="108.6636"/><path d="M116,108.6636 L116,105.6636 L122,108.6636 L116,111.6636 L116,108.6636 " fill="#181818" style="stroke:#181818;stroke-width:1.5;"/><path d="M148,96.6636 C148,105.6636 145,108.6636 136,108.6636 " fill="none" style="stroke:#181818;stroke-width:1.5;"/><rect fill="none" height="29.0654" style="stroke:#181818;stroke-width:0.5;" width="26" x="64" y="133.1963"/><text fill="#000000" font-family="Open Sans" font-size="14" lengthAdjust="spacing" textLength="16" x="69" y="153.1602">fix</text><path d="M52,135.729 C52,144.729 55,147.729 64,147.729 " fill="none" style="stroke:#181818;stroke-width:1.5;"/><line style="stroke:#181818;stroke-width:1.5;" x1="90" x2="136" y1="147.729" y2="147.729"/><path d="M111,147.729 L111,144.729 L117,147.729 L111,150.729 L111,147.729 " fill="#181818" style="stroke:#181818;stroke-width:1.5;"/><path d="M148,135.729 C148,144.729 145,147.729 136,147.729 " fill="none" style="stroke:#181818;stroke-width:1.5;"/><rect fill="none" height="29.0654" style="stroke:#181818;stroke-width:0.5;" width="41" x="64" y="172.2617"/><text fill="#000000" font-family="Open Sans" font-size="14" lengthAdjust="spacing" textLength="31" x="69" y="192.2256">style</text><path d="M52,174.7944 C52,183.7944 55,186.7944 64,186.7944 " fill="none" style="stroke:#181818;stroke-width:1.5;"/><line style="stroke:#181818;stroke-width:1.5;" x1="105" x2="136" y1="186.7944" y2="186.7944"/><path d="M118.5,186.7944 L118.5,183.7944 L124.5,186.7944 L118.5,189.7944 L118.5,186.7944 " fill="#181818" style="stroke:#181818;stroke-width:1.5;"/><path d="M148,174.7944 C148,183.7944 145,186.7944 136,186.7944 " fill="none" style="stroke:#181818;stroke-width:1.5;"/><rect fill="none" height="29.0654" style="stroke:#181818;stroke-width:0.5;" width="38" x="64" y="211.3271"/><text fill="#000000" font-family="Open Sans" font-size="14" lengthAdjust="spacing" textLength="28" x="69" y="231.291">perf</text><path d="M52,213.8599 C52,222.8599 55,225.8599 64,225.8599 " fill="none" style="stroke:#181818;stroke-width:1.5;"/><line style="stroke:#181818;stroke-width:1.5;" x1="102" x2="136" y1="225.8599" y2="225.8599"/><path d="M117,225.8599 L117,222.8599 L123,225.8599 L117,228.8599 L117,225.8599 " fill="#181818" style="stroke:#181818;stroke-width:1.5;"/><path d="M148,213.8599 C148,222.8599 145,225.8599 136,225.8599 " fill="none" style="stroke:#181818;stroke-width:1.5;"/><rect fill="none" height="29.0654" style="stroke:#181818;stroke-width:0.5;" width="42" x="64" y="250.3926"/><text fill="#000000" font-family="Open Sans" font-size="14" lengthAdjust="spacing" textLength="32" x="69" y="270.3564">code</text><path d="M52,252.9253 C52,261.9253 55,264.9253 64,264.9253 " fill="none" style="stroke:#181818;stroke-width:1.5;"/><line style="stroke:#181818;stroke-width:1.5;" x1="106" x2="136" y1="264.9253" y2="264.9253"/><path d="M119,264.9253 L119,261.9253 L125,264.9253 L119,267.9253 L119,264.9253 " fill="#181818" style="stroke:#181818;stroke-width:1.5;"/><path d="M148,252.9253 C148,261.9253 145,264.9253 136,264.9253 " fill="none" style="stroke:#181818;stroke-width:1.5;"/><rect fill="none" height="29.0654" style="stroke:#181818;stroke-width:0.5;" width="72" x="64" y="289.458"/><text fill="#000000" font-family="Open Sans" font-size="14" lengthAdjust="spacing" textLength="62" x="69" y="309.4219">structure</text><path d="M52,291.9907 C52,300.9907 55,303.9907 64,303.9907 " fill="none" style="stroke:#181818;stroke-width:1.5;"/><line style="stroke:#181818;stroke-width:1.5;" x1="136" x2="136" y1="303.9907" y2="303.9907"/><path d="M148,291.9907 C148,300.9907 145,303.9907 136,303.9907 " fill="none" style="stroke:#181818;stroke-width:1.5;"/><rect fill="none" height="29.0654" style="stroke:#181818;stroke-width:0.5;" width="35" x="64" y="328.5234"/><text fill="#000000" font-family="Open Sans" font-size="14" lengthAdjust="spacing" textLength="25" x="69" y="348.4873">test</text><path d="M52,331.0562 C52,340.0562 55,343.0562 64,343.0562 " fill="none" style="stroke:#181818;stroke-width:1.5;"/><line style="stroke:#181818;stroke-width:1.5;" x1="99" x2="136" y1="343.0562" y2="343.0562"/><path d="M115.5,343.0562 L115.5,340.0562 L121.5,343.0562 L115.5,346.0562 L115.5,343.0562 " fill="#181818" style="stroke:#181818;stroke-width:1.5;"/><path d="M148,331.0562 C148,340.0562 145,343.0562 136,343.0562 " fill="none" style="stroke:#181818;stroke-width:1.5;"/><rect fill="none" height="29.0654" style="stroke:#181818;stroke-width:0.5;" width="27" x="64" y="367.5889"/><text fill="#000000" font-family="Open Sans" font-size="14" lengthAdjust="spacing" textLength="17" x="69" y="387.5527">git</text><path d="M52,370.1216 C52,379.1216 55,382.1216 64,382.1216 " fill="none" style="stroke:#181818;stroke-width:1.5;"/><line style="stroke:#181818;stroke-width:1.5;" x1="91" x2="136" y1="382.1216" y2="382.1216"/><path d="M111.5,382.1216 L111.5,379.1216 L117.5,382.1216 L111.5,385.1216 L111.5,382.1216 " fill="#181818" style="stroke:#181818;stroke-width:1.5;"/><path d="M148,370.1216 C148,379.1216 145,382.1216 136,382.1216 " fill="none" style="stroke:#181818;stroke-width:1.5;"/><rect fill="none" height="29.0654" style="stroke:#181818;stroke-width:0.5;" width="45" x="64" y="406.6543"/><text fill="#000000" font-family="Open Sans" font-size="14" lengthAdjust="spacing" textLength="35" x="69" y="426.6182">build</text><line style="stroke:#181818;stroke-width:1.5;" x1="109" x2="136" y1="421.187" y2="421.187"/><path d="M120.5,421.187 L120.5,418.187 L126.5,421.187 L120.5,424.187 L120.5,421.187 " fill="#181818" style="stroke:#181818;stroke-width:1.5;"/><path d="M52,409.187 C52,418.187 55,421.187 64,421.187 " fill="none" style="stroke:#181818;stroke-width:1.5;"/><line style="stroke:#181818;stroke-width:1.5;" x1="52" x2="52" y1="81.5981" y2="409.187"/><path d="M40,69.5981 C49,69.5981 52,72.5981 52,81.5981 " fill="none" style="stroke:#181818;stroke-width:1.5;"/><path d="M148,409.187 C148,418.187 145,421.187 136,421.187 " fill="none" style="stroke:#181818;stroke-width:1.5;"/><line style="stroke:#181818;stroke-width:1.5;" x1="148" x2="148" y1="81.5981" y2="409.187"/><path d="M148,81.5981 C148,72.5981 151,69.5981 160,69.5981 " fill="none" style="stroke:#181818;stroke-width:1.5;"/><line style="stroke:#181818;stroke-width:1.5;" x1="160" x2="180" y1="69.5981" y2="69.5981"/><path d="M188,61.5981 C188,67.5981 186,69.5981 180,69.5981 " fill="none" style="stroke:#181818;stroke-width:1.5;"/><line style="stroke:#181818;stroke-width:1.5;" x1="188" x2="188" y1="52.0654" y2="61.5981"/><path d="M188,52.0654 C188,46.0654 190,44.0654 196,44.0654 " fill="none" style="stroke:#181818;stroke-width:1.5;"/><line style="stroke:#181818;stroke-width:1.5;" x1="196" x2="348" y1="44.0654" y2="44.0654"/><path d="M254.8,44.0654 L254.8,41.0654 L260.8,44.0654 L254.8,47.0654 L254.8,44.0654 " fill="#181818" style="stroke:#181818;stroke-width:1.5;"/><path d="M356,61.5981 C356,67.5981 358,69.5981 364,69.5981 " fill="none" style="stroke:#181818;stroke-width:1.5;"/><line style="stroke:#181818;stroke-width:1.5;" x1="356" x2="356" y1="52.0654" y2="61.5981"/><path d="M348,44.0654 C354,44.0654 356,46.0654 356,52.0654 " fill="none" style="stroke:#181818;stroke-width:1.5;"/><line style="stroke:#181818;stroke-width:1.5;" x1="180" x2="195" y1="69.5981" y2="69.5981"/><line style="stroke:#181818;stroke-width:1.5;" x1="349" x2="364" y1="69.5981" y2="69.5981"/><line style="stroke:#181818;stroke-width:1.5;" x1="195" x2="195" y1="69.5981" y2="69.5981"/><rect fill="none" height="29.0654" style="stroke:#181818;stroke-width:0.5;" width="14" x="195" y="55.0654"/><text fill="#000000" font-family="Open Sans" font-size="14" lengthAdjust="spacing" textLength="4" x="200" y="75.0293">(</text><line style="stroke:#181818;stroke-width:1.5;" x1="209" x2="229" y1="69.5981" y2="69.5981"/><rect fill="#F1F1F1" height="29.0654" rx="5" ry="5" style="stroke:#181818;stroke-width:1.5;" width="86" x="229" y="55.0654"/><text fill="#000000" font-family="Open Sans" font-size="14" lengthAdjust="spacing" textLength="76" x="234" y="75.0293">component</text><line style="stroke:#181818;stroke-width:1.5;" x1="315" x2="335" y1="69.5981" y2="69.5981"/><rect fill="none" height="29.0654" style="stroke:#181818;stroke-width:0.5;" width="14" x="335" y="55.0654"/><text fill="#000000" font-family="Open Sans" font-size="14" lengthAdjust="spacing" textLength="4" x="340" y="75.0293">)</text><line style="stroke:#181818;stroke-width:1.5;" x1="364" x2="384" y1="69.5981" y2="69.5981"/><path d="M392,61.5981 C392,67.5981 390,69.5981 384,69.5981 " fill="none" style="stroke:#181818;stroke-width:1.5;"/><line style="stroke:#181818;stroke-width:1.5;" x1="392" x2="392" y1="52.0654" y2="61.5981"/><path d="M392,52.0654 C392,46.0654 394,44.0654 400,44.0654 " fill="none" style="stroke:#181818;stroke-width:1.5;"/><line style="stroke:#181818;stroke-width:1.5;" x1="400" x2="513" y1="44.0654" y2="44.0654"/><path d="M443.2,44.0654 L443.2,41.0654 L449.2,44.0654 L443.2,47.0654 L443.2,44.0654 " fill="#181818" style="stroke:#181818;stroke-width:1.5;"/><path d="M521,61.5981 C521,67.5981 523,69.5981 529,69.5981 " fill="none" style="stroke:#181818;stroke-width:1.5;"/><line style="stroke:#181818;stroke-width:1.5;" x1="521" x2="521" y1="52.0654" y2="61.5981"/><path d="M513,44.0654 C519,44.0654 521,46.0654 521,52.0654 " fill="none" style="stroke:#181818;stroke-width:1.5;"/><line style="stroke:#181818;stroke-width:1.5;" x1="384" x2="399" y1="69.5981" y2="69.5981"/><line style="stroke:#181818;stroke-width:1.5;" x1="514" x2="529" y1="69.5981" y2="69.5981"/><line style="stroke:#181818;stroke-width:1.5;" x1="399" x2="399" y1="69.5981" y2="69.5981"/><rect fill="none" height="29.0654" style="stroke:#181818;stroke-width:0.5;" width="15" x="399" y="55.0654"/><text fill="#000000" font-family="Open Sans" font-size="14" lengthAdjust="spacing" textLength="5" x="404" y="75.0293">[</text><line style="stroke:#181818;stroke-width:1.5;" x1="414" x2="434" y1="69.5981" y2="69.5981"/><rect fill="#F1F1F1" height="29.0654" rx="5" ry="5" style="stroke:#181818;stroke-width:1.5;" width="45" x="434" y="55.0654"/><text fill="#000000" font-family="Open Sans" font-size="14" lengthAdjust="spacing" textLength="35" x="439" y="75.0293">issue</text><line style="stroke:#181818;stroke-width:1.5;" x1="479" x2="499" y1="69.5981" y2="69.5981"/><rect fill="none" height="29.0654" style="stroke:#181818;stroke-width:0.5;" width="15" x="499" y="55.0654"/><text fill="#000000" font-family="Open Sans" font-size="14" lengthAdjust="spacing" textLength="5" x="504" y="75.0293">]</text><line style="stroke:#181818;stroke-width:1.5;" x1="529" x2="549" y1="69.5981" y2="69.5981"/><rect fill="#F1F1F1" height="29.0654" rx="5" ry="5" style="stroke:#181818;stroke-width:1.5;" width="59" x="549" y="55.0654"/><text fill="#000000" font-family="Open Sans" font-size="14" lengthAdjust="spacing" textLength="49" x="554" y="75.0293">change</text><ellipse cx="14" cy="69.5981" fill="none" rx="4" ry="4" style="stroke:#181818;stroke-width:2.0;"/><ellipse cx="638" cy="69.5981" fill="#181818" rx="4" ry="4" style="stroke:#181818;stroke-width:1.0;"/><line style="stroke:#181818;stroke-width:1.5;" x1="18" x2="40" y1="69.5981" y2="69.5981"/><line style="stroke:#181818;stroke-width:1.5;" x1="608" x2="634" y1="69.5981" y2="69.5981"/><path d="M619,69.5981 L619,66.5981 L625,69.5981 L619,72.5981 L619,69.5981 " fill="#181818" style="stroke:#181818;stroke-width:1.5;"/><!--SRC=[HL1DQy904BtlhnZsb42K6gMqAGMnMY5LAdvTnCEQJDAboMpO3wdG7zzDqjBJl7spR-RDcnehjCKB5SnyIcg45ZNaM0XNsKAH9L4ZyFS62NQ236UPgcjfuHa2dgkCmpVm0eNjWVpggh6t2ZlKe2uwaAaSVtlQPTRf_cNHzD9IzlNYP9NpC88J3tW4VbkZ2Cb6FEJdbZrvLXhZC09-RgdiGr29JsoAb7Tti4qbo1xMAxYYDb8HZ8RnNJmUFWPxXv0wJunXD4dYKH9FO37VGziEMR3ShC0efpE4N7gZykAiruSi5LS1MqTMrfX0cqOwV_iZO45NgHNLtYPBZ-l_3_UJmSndjKFjdS1npUPzi5xXyv1K9d3OlmuUsCgVu4JfPoEn5-Ndwbi2ozaF]--></g></svg>