<?xml version="1.0" encoding="us-ascii" standalone="no"?><svg xmlns="http://www.w3.org/2000/svg" xmlns:xlink="http://www.w3.org/1999/xlink" contentStyleType="text/css" height="237px" preserveAspectRatio="none" style="width:550px;height:237px;background:#FFFFFF;" version="1.1" viewBox="0 0 550 237" width="550px" zoomAndPan="magnify"><defs/><g><text fill="#000000" font-family="sans-serif" font-size="14" font-weight="bold" lengthAdjust="spacing" textLength="118" x="10" y="24.5332">commit-for-issue</text><line style="stroke:#181818;stroke-width:1.5;" x1="40" x2="40" y1="51.4141" y2="51.4141"/><rect fill="#F1F1F1" height="27.6094" rx="5" ry="5" style="stroke:#181818;stroke-width:1.5;" width="45" x="40" y="37.6094"/><text fill="#000000" font-family="sans-serif" font-size="14" lengthAdjust="spacing" textLength="35" x="45" y="57.1426">Prefix</text><line style="stroke:#181818;stroke-width:1.5;" x1="85" x2="105" y1="51.4141" y2="51.4141"/><rect fill="none" height="27.6094" style="stroke:#181818;stroke-width:0.5;" width="15" x="105" y="37.6094"/><text fill="#000000" font-family="sans-serif" font-size="14" lengthAdjust="spacing" textLength="5" x="110" y="57.1426">(</text><line style="stroke:#181818;stroke-width:1.5;" x1="120" x2="140" y1="51.4141" y2="51.4141"/><rect fill="#F1F1F1" height="27.6094" rx="5" ry="5" style="stroke:#181818;stroke-width:1.5;" width="43" x="140" y="37.6094"/><text fill="#000000" font-family="sans-serif" font-size="14" lengthAdjust="spacing" textLength="33" x="145" y="57.1426">issue</text><line style="stroke:#181818;stroke-width:1.5;" x1="183" x2="203" y1="51.4141" y2="51.4141"/><rect fill="none" height="27.6094" style="stroke:#181818;stroke-width:0.5;" width="19" x="203" y="37.6094"/><text fill="#000000" font-family="sans-serif" font-size="14" lengthAdjust="spacing" textLength="9" x="208" y="57.1426">):</text><line style="stroke:#181818;stroke-width:1.5;" x1="222" x2="242" y1="51.4141" y2="51.4141"/><rect fill="#F1F1F1" height="27.6094" rx="5" ry="5" style="stroke:#181818;stroke-width:1.5;" width="57" x="242" y="37.6094"/><text fill="#000000" font-family="sans-serif" font-size="14" lengthAdjust="spacing" textLength="47" x="247" y="57.1426">change</text><ellipse cx="14" cy="51.4141" fill="none" rx="4" ry="4" style="stroke:#181818;stroke-width:2.0;"/><ellipse cx="329" cy="51.4141" fill="#181818" rx="4" ry="4" style="stroke:#181818;stroke-width:1.0;"/><line style="stroke:#181818;stroke-width:1.5;" x1="18" x2="40" y1="51.4141" y2="51.4141"/><line style="stroke:#181818;stroke-width:1.5;" x1="299" x2="325" y1="51.4141" y2="51.4141"/><path d="M310,51.4141 L310,48.4141 L316,51.4141 L310,54.4141 L310,51.4141 " fill="#181818" style="stroke:#181818;stroke-width:1.5;"/><text fill="#000000" font-family="sans-serif" font-size="14" font-weight="bold" lengthAdjust="spacing" textLength="68" x="10" y="94.752">in-commit</text><line style="stroke:#181818;stroke-width:1.5;" x1="40" x2="40" y1="121.6328" y2="121.6328"/><rect fill="none" height="27.6094" style="stroke:#181818;stroke-width:0.5;" width="69" x="40" y="107.8281"/><text fill="#000000" font-family="sans-serif" font-size="14" lengthAdjust="spacing" textLength="59" x="45" y="127.3613">In commit</text><line style="stroke:#181818;stroke-width:1.5;" x1="109" x2="129" y1="121.6328" y2="121.6328"/><rect fill="none" height="27.6094" style="stroke:#181818;stroke-width:0.5;" width="15" x="129" y="107.8281"/><text fill="#000000" font-family="sans-serif" font-size="14" lengthAdjust="spacing" textLength="5" x="134" y="127.3613">(</text><line style="stroke:#181818;stroke-width:1.5;" x1="144" x2="164" y1="121.6328" y2="121.6328"/><rect fill="#F1F1F1" height="27.6094" rx="5" ry="5" style="stroke:#181818;stroke-width:1.5;" width="54" x="164" y="107.8281"/><text fill="#000000" font-family="sans-serif" font-size="14" lengthAdjust="spacing" textLength="44" x="169" y="127.3613">commit</text><line style="stroke:#181818;stroke-width:1.5;" x1="218" x2="238" y1="121.6328" y2="121.6328"/><rect fill="none" height="27.6094" style="stroke:#181818;stroke-width:0.5;" width="19" x="238" y="107.8281"/><text fill="#000000" font-family="sans-serif" font-size="14" lengthAdjust="spacing" textLength="9" x="243" y="127.3613">):</text><line style="stroke:#181818;stroke-width:1.5;" x1="257" x2="277" y1="121.6328" y2="121.6328"/><rect fill="none" height="27.6094" style="stroke:#181818;stroke-width:0.5;" width="180" x="301" y="107.8281"/><text fill="#000000" font-family="sans-serif" font-size="14" lengthAdjust="spacing" textLength="170" x="306" y="127.3613">address proposed problem</text><line style="stroke:#181818;stroke-width:1.5;" x1="277" x2="301" y1="121.6328" y2="121.6328"/><line style="stroke:#181818;stroke-width:1.5;" x1="481" x2="505" y1="121.6328" y2="121.6328"/><rect fill="none" height="27.6094" style="stroke:#181818;stroke-width:0.5;" width="161" x="301" y="145.4375"/><text fill="#000000" font-family="sans-serif" font-size="14" lengthAdjust="spacing" textLength="151" x="306" y="164.9707">apply proposed solution</text><path d="M289,147.2422 C289,156.2422 292,159.2422 301,159.2422 " fill="none" style="stroke:#181818;stroke-width:1.5;"/><line style="stroke:#181818;stroke-width:1.5;" x1="462" x2="481" y1="159.2422" y2="159.2422"/><path d="M493,147.2422 C493,156.2422 490,159.2422 481,159.2422 " fill="none" style="stroke:#181818;stroke-width:1.5;"/><rect fill="none" height="27.6094" style="stroke:#181818;stroke-width:1.0;stroke-dasharray:5.0,5.0;" width="98" x="301" y="183.0469"/><text fill="#000000" font-family="sans-serif" font-size="14" lengthAdjust="spacing" textLength="88" x="306" y="202.5801">other reasons</text><line style="stroke:#181818;stroke-width:1.5;" x1="399" x2="481" y1="196.8516" y2="196.8516"/><path d="M438,196.8516 L438,193.8516 L444,196.8516 L438,199.8516 L438,196.8516 " fill="#181818" style="stroke:#181818;stroke-width:1.5;"/><path d="M289,184.8516 C289,193.8516 292,196.8516 301,196.8516 " fill="none" style="stroke:#181818;stroke-width:1.5;"/><line style="stroke:#181818;stroke-width:1.5;" x1="289" x2="289" y1="133.6328" y2="184.8516"/><path d="M277,121.6328 C286,121.6328 289,124.6328 289,133.6328 " fill="none" style="stroke:#181818;stroke-width:1.5;"/><path d="M493,184.8516 C493,193.8516 490,196.8516 481,196.8516 " fill="none" style="stroke:#181818;stroke-width:1.5;"/><line style="stroke:#181818;stroke-width:1.5;" x1="493" x2="493" y1="133.6328" y2="184.8516"/><path d="M493,133.6328 C493,124.6328 496,121.6328 505,121.6328 " fill="none" style="stroke:#181818;stroke-width:1.5;"/><ellipse cx="14" cy="121.6328" fill="none" rx="4" ry="4" style="stroke:#181818;stroke-width:2.0;"/><ellipse cx="535" cy="121.6328" fill="#181818" rx="4" ry="4" style="stroke:#181818;stroke-width:1.0;"/><line style="stroke:#181818;stroke-width:1.5;" x1="18" x2="40" y1="121.6328" y2="121.6328"/><line style="stroke:#181818;stroke-width:1.5;" x1="505" x2="531" y1="121.6328" y2="121.6328"/><path d="M516,121.6328 L516,118.6328 L522,121.6328 L516,124.6328 L516,121.6328 " fill="#181818" style="stroke:#181818;stroke-width:1.5;"/><!--SRC=[HL1BQy904BxlhnZsb82H6gMqaQ9OhJHLAgrwNvE9BYIpONPNAlJ7TzMAj_bUynfRfzZXZYfHcARHBgaC9zfQZ_02AyPA_tH0Hh835pBKSHP0SL2qnw7Gb5npmItV2Qv0_aUkw9Q9f2fBHckXPTCQY-MvsDNOIFW5gTgsFjqbQshljA6pDZBkW0oCoXgoetWenaZbPMkngXMvpN81HsGR_D3hfWzfl_iShSCDkGz47tg3BErbwG1cqpMSvLX4yzKY3F5S89JQEjQxoxnOvEgeuCkJqmrcyDaYvTEF6m4pEcesr20vaM-NTyFZ89c4FtmZXqrWknHJh9IlNKWKfjIqps2pVakUn2Aypgjzw8qaNateowSCvfC_]--></g></svg>