<?xml version="1.0" encoding="us-ascii" standalone="no"?><svg xmlns="http://www.w3.org/2000/svg" xmlns:xlink="http://www.w3.org/1999/xlink" contentStyleType="text/css" height="246px" preserveAspectRatio="none" style="width:575px;height:246px;background:#FFFFFF;" version="1.1" viewBox="0 0 575 246" width="575px" zoomAndPan="magnify"><defs/><g><text fill="#000000" font-family="Open Sans" font-size="14" font-weight="bold" lengthAdjust="spacing" textLength="121" x="10" y="24.9639">commit-for-issue</text><line style="stroke:#181818;stroke-width:1.5;" x1="40" x2="40" y1="53.5981" y2="53.5981"/><rect fill="#F1F1F1" height="29.0654" rx="5" ry="5" style="stroke:#181818;stroke-width:1.5;" width="48" x="40" y="39.0654"/><text fill="#000000" font-family="Open Sans" font-size="14" lengthAdjust="spacing" textLength="38" x="45" y="59.0293">Prefix</text><line style="stroke:#181818;stroke-width:1.5;" x1="88" x2="108" y1="53.5981" y2="53.5981"/><rect fill="none" height="29.0654" style="stroke:#181818;stroke-width:0.5;" width="14" x="108" y="39.0654"/><text fill="#000000" font-family="Open Sans" font-size="14" lengthAdjust="spacing" textLength="4" x="113" y="59.0293">(</text><line style="stroke:#181818;stroke-width:1.5;" x1="122" x2="142" y1="53.5981" y2="53.5981"/><rect fill="#F1F1F1" height="29.0654" rx="5" ry="5" style="stroke:#181818;stroke-width:1.5;" width="45" x="142" y="39.0654"/><text fill="#000000" font-family="Open Sans" font-size="14" lengthAdjust="spacing" textLength="35" x="147" y="59.0293">issue</text><line style="stroke:#181818;stroke-width:1.5;" x1="187" x2="207" y1="53.5981" y2="53.5981"/><rect fill="none" height="29.0654" style="stroke:#181818;stroke-width:0.5;" width="18" x="207" y="39.0654"/><text fill="#000000" font-family="Open Sans" font-size="14" lengthAdjust="spacing" textLength="8" x="212" y="59.0293">):</text><line style="stroke:#181818;stroke-width:1.5;" x1="225" x2="245" y1="53.5981" y2="53.5981"/><rect fill="#F1F1F1" height="29.0654" rx="5" ry="5" style="stroke:#181818;stroke-width:1.5;" width="59" x="245" y="39.0654"/><text fill="#000000" font-family="Open Sans" font-size="14" lengthAdjust="spacing" textLength="49" x="250" y="59.0293">change</text><ellipse cx="14" cy="53.5981" fill="none" rx="4" ry="4" style="stroke:#181818;stroke-width:2.0;"/><ellipse cx="334" cy="53.5981" fill="#181818" rx="4" ry="4" style="stroke:#181818;stroke-width:1.0;"/><line style="stroke:#181818;stroke-width:1.5;" x1="18" x2="40" y1="53.5981" y2="53.5981"/><line style="stroke:#181818;stroke-width:1.5;" x1="304" x2="330" y1="53.5981" y2="53.5981"/><path d="M315,53.5981 L315,50.5981 L321,53.5981 L315,56.5981 L315,53.5981 " fill="#181818" style="stroke:#181818;stroke-width:1.5;"/><text fill="#000000" font-family="Open Sans" font-size="14" font-weight="bold" lengthAdjust="spacing" textLength="71.9375" x="10" y="98.0947">in-commit</text><line style="stroke:#181818;stroke-width:1.5;" x1="40" x2="40" y1="126.729" y2="126.729"/><rect fill="none" height="29.0654" style="stroke:#181818;stroke-width:0.5;" width="77" x="40" y="112.1963"/><text fill="#000000" font-family="Open Sans" font-size="14" lengthAdjust="spacing" textLength="67" x="45" y="132.1602">In commit</text><line style="stroke:#181818;stroke-width:1.5;" x1="117" x2="137" y1="126.729" y2="126.729"/><rect fill="none" height="29.0654" style="stroke:#181818;stroke-width:0.5;" width="14" x="137" y="112.1963"/><text fill="#000000" font-family="Open Sans" font-size="14" lengthAdjust="spacing" textLength="4" x="142" y="132.1602">(</text><line style="stroke:#181818;stroke-width:1.5;" x1="151" x2="171" y1="126.729" y2="126.729"/><rect fill="#F1F1F1" height="29.0654" rx="5" ry="5" style="stroke:#181818;stroke-width:1.5;" width="60" x="171" y="112.1963"/><text fill="#000000" font-family="Open Sans" font-size="14" lengthAdjust="spacing" textLength="50" x="176" y="132.1602">commit</text><line style="stroke:#181818;stroke-width:1.5;" x1="231" x2="251" y1="126.729" y2="126.729"/><rect fill="none" height="29.0654" style="stroke:#181818;stroke-width:0.5;" width="18" x="251" y="112.1963"/><text fill="#000000" font-family="Open Sans" font-size="14" lengthAdjust="spacing" textLength="8" x="256" y="132.1602">):</text><line style="stroke:#181818;stroke-width:1.5;" x1="269" x2="289" y1="126.729" y2="126.729"/><rect fill="none" height="29.0654" style="stroke:#181818;stroke-width:0.5;" width="193" x="313" y="112.1963"/><text fill="#000000" font-family="Open Sans" font-size="14" lengthAdjust="spacing" textLength="183" x="318" y="132.1602">address proposed problem</text><line style="stroke:#181818;stroke-width:1.5;" x1="289" x2="313" y1="126.729" y2="126.729"/><line style="stroke:#181818;stroke-width:1.5;" x1="506" x2="530" y1="126.729" y2="126.729"/><rect fill="none" height="29.0654" style="stroke:#181818;stroke-width:0.5;" width="173" x="313" y="151.2617"/><text fill="#000000" font-family="Open Sans" font-size="14" lengthAdjust="spacing" textLength="163" x="318" y="171.2256">apply proposed solution</text><path d="M301,153.7944 C301,162.7944 304,165.7944 313,165.7944 " fill="none" style="stroke:#181818;stroke-width:1.5;"/><line style="stroke:#181818;stroke-width:1.5;" x1="486" x2="506" y1="165.7944" y2="165.7944"/><path d="M518,153.7944 C518,162.7944 515,165.7944 506,165.7944 " fill="none" style="stroke:#181818;stroke-width:1.5;"/><rect fill="none" height="29.0654" style="stroke:#181818;stroke-width:1.0;stroke-dasharray:5.0,5.0;" width="103" x="313" y="190.3271"/><text fill="#000000" font-family="Open Sans" font-size="14" lengthAdjust="spacing" textLength="93" x="318" y="210.291">other reasons</text><line style="stroke:#181818;stroke-width:1.5;" x1="416" x2="506" y1="204.8599" y2="204.8599"/><path d="M459,204.8599 L459,201.8599 L465,204.8599 L459,207.8599 L459,204.8599 " fill="#181818" style="stroke:#181818;stroke-width:1.5;"/><path d="M301,192.8599 C301,201.8599 304,204.8599 313,204.8599 " fill="none" style="stroke:#181818;stroke-width:1.5;"/><line style="stroke:#181818;stroke-width:1.5;" x1="301" x2="301" y1="138.729" y2="192.8599"/><path d="M289,126.729 C298,126.729 301,129.729 301,138.729 " fill="none" style="stroke:#181818;stroke-width:1.5;"/><path d="M518,192.8599 C518,201.8599 515,204.8599 506,204.8599 " fill="none" style="stroke:#181818;stroke-width:1.5;"/><line style="stroke:#181818;stroke-width:1.5;" x1="518" x2="518" y1="138.729" y2="192.8599"/><path d="M518,138.729 C518,129.729 521,126.729 530,126.729 " fill="none" style="stroke:#181818;stroke-width:1.5;"/><ellipse cx="14" cy="126.729" fill="none" rx="4" ry="4" style="stroke:#181818;stroke-width:2.0;"/><ellipse cx="560" cy="126.729" fill="#181818" rx="4" ry="4" style="stroke:#181818;stroke-width:1.0;"/><line style="stroke:#181818;stroke-width:1.5;" x1="18" x2="40" y1="126.729" y2="126.729"/><line style="stroke:#181818;stroke-width:1.5;" x1="530" x2="556" y1="126.729" y2="126.729"/><path d="M541,126.729 L541,123.729 L547,126.729 L541,129.729 L541,126.729 " fill="#181818" style="stroke:#181818;stroke-width:1.5;"/><!--SRC=[HL3RQi9047tVhnZsAG4ZDKff8qMnMcbggDJB-vfCT6ao6_OY5VhntPYARtFcd3ENCpLMQ8i7AfdvbjG8BMeei1IkigKYIw96u9yD4cm46SvoLTVIHgNIaJJ68Rp0McCfVth00zw3QzFNOU91VX9qn36J57K-h-Rl11tW_vOEtJm15qMXqHXej6gKmQ8j3XNM77w1YwQfBdVAgCfPgQZb9igUK8D6OHIPIJXcKwJY-XjRLuBiBbl16RNnUXZquuTus7yEjlw7rFd640QZ91uayGWMyosqTCY2vNhbbpYT8nJIM2qFrtqXIyLPm9SZAsjCe4qedN_S6h2WizIAQYJBqdrs5poEefdFOOFQNmBxZCsxiBqZLuMaOmAxxLlqn5O-EYUEVZOIUrL-hhuai9pz0G00]--></g></svg>