<?xml version="1.0" encoding="us-ascii" standalone="no"?><svg xmlns="http://www.w3.org/2000/svg" xmlns:xlink="http://www.w3.org/1999/xlink" contentStyleType="text/css" height="358px" preserveAspectRatio="none" style="width:556px;height:358px;background:#FFFFFF;" version="1.1" viewBox="0 0 556 358" width="556px" zoomAndPan="magnify"><defs/><g><text fill="#000000" font-family="Open Sans" font-size="14" font-weight="bold" lengthAdjust="spacing" textLength="111.4375" x="10" y="24.9639">child-issue-title</text><line style="stroke:#181818;stroke-width:1.5;" x1="40" x2="40" y1="53.5981" y2="53.5981"/><rect fill="none" height="29.0654" style="stroke:#181818;stroke-width:0.5;" width="26" x="64" y="39.0654"/><text fill="#000000" font-family="Open Sans" font-size="14" lengthAdjust="spacing" textLength="16" x="69" y="59.0293">FA</text><line style="stroke:#181818;stroke-width:1.5;" x1="40" x2="64" y1="53.5981" y2="53.5981"/><line style="stroke:#181818;stroke-width:1.5;" x1="90" x2="115" y1="53.5981" y2="53.5981"/><rect fill="none" height="29.0654" style="stroke:#181818;stroke-width:0.5;" width="27" x="64" y="78.1309"/><text fill="#000000" font-family="Open Sans" font-size="14" lengthAdjust="spacing" textLength="17" x="69" y="98.0947">PC</text><line style="stroke:#181818;stroke-width:1.5;" x1="91" x2="91" y1="92.6636" y2="92.6636"/><path d="M52,80.6636 C52,89.6636 55,92.6636 64,92.6636 " fill="none" style="stroke:#181818;stroke-width:1.5;"/><line style="stroke:#181818;stroke-width:1.5;" x1="52" x2="52" y1="65.5981" y2="80.6636"/><path d="M40,53.5981 C49,53.5981 52,56.5981 52,65.5981 " fill="none" style="stroke:#181818;stroke-width:1.5;"/><path d="M103,80.6636 C103,89.6636 100,92.6636 91,92.6636 " fill="none" style="stroke:#181818;stroke-width:1.5;"/><line style="stroke:#181818;stroke-width:1.5;" x1="103" x2="103" y1="65.5981" y2="80.6636"/><path d="M103,65.5981 C103,56.5981 106,53.5981 115,53.5981 " fill="none" style="stroke:#181818;stroke-width:1.5;"/><line style="stroke:#181818;stroke-width:1.5;" x1="115" x2="135" y1="53.5981" y2="53.5981"/><rect fill="none" height="29.0654" style="stroke:#181818;stroke-width:0.5;" width="14" x="135" y="39.0654"/><text fill="#000000" font-family="Open Sans" font-size="14" lengthAdjust="spacing" textLength="4" x="140" y="59.0293">:</text><line style="stroke:#181818;stroke-width:1.5;" x1="149" x2="169" y1="53.5981" y2="53.5981"/><rect fill="#F1F1F1" height="29.0654" rx="5" ry="5" style="stroke:#181818;stroke-width:1.5;" width="36" x="169" y="39.0654"/><text fill="#000000" font-family="Open Sans" font-size="14" lengthAdjust="spacing" textLength="26" x="174" y="59.0293">title</text><ellipse cx="14" cy="53.5981" fill="none" rx="4" ry="4" style="stroke:#181818;stroke-width:2.0;"/><ellipse cx="235" cy="53.5981" fill="#181818" rx="4" ry="4" style="stroke:#181818;stroke-width:1.0;"/><line style="stroke:#181818;stroke-width:1.5;" x1="18" x2="40" y1="53.5981" y2="53.5981"/><line style="stroke:#181818;stroke-width:1.5;" x1="205" x2="231" y1="53.5981" y2="53.5981"/><path d="M216,53.5981 L216,50.5981 L222,53.5981 L216,56.5981 L216,53.5981 " fill="#181818" style="stroke:#181818;stroke-width:1.5;"/><text fill="#000000" font-family="Open Sans" font-size="14" font-weight="bold" lengthAdjust="spacing" textLength="137.3125" x="10" y="137.1602">child-issue-content</text><line style="stroke:#181818;stroke-width:1.5;" x1="40" x2="40" y1="165.7944" y2="165.7944"/><rect fill="none" height="29.0654" style="stroke:#181818;stroke-width:0.5;" width="99" x="64" y="151.2617"/><text fill="#000000" font-family="Open Sans" font-size="14" lengthAdjust="spacing" textLength="89" x="69" y="171.2256">Future action</text><line style="stroke:#181818;stroke-width:1.5;" x1="40" x2="64" y1="165.7944" y2="165.7944"/><line style="stroke:#181818;stroke-width:1.5;" x1="163" x2="206" y1="165.7944" y2="165.7944"/><rect fill="none" height="29.0654" style="stroke:#181818;stroke-width:0.5;" width="118" x="64" y="190.3271"/><text fill="#000000" font-family="Open Sans" font-size="14" lengthAdjust="spacing" textLength="108" x="69" y="210.291">Pending change</text><line style="stroke:#181818;stroke-width:1.5;" x1="182" x2="182" y1="204.8599" y2="204.8599"/><path d="M52,192.8599 C52,201.8599 55,204.8599 64,204.8599 " fill="none" style="stroke:#181818;stroke-width:1.5;"/><line style="stroke:#181818;stroke-width:1.5;" x1="52" x2="52" y1="177.7944" y2="192.8599"/><path d="M40,165.7944 C49,165.7944 52,168.7944 52,177.7944 " fill="none" style="stroke:#181818;stroke-width:1.5;"/><path d="M194,192.8599 C194,201.8599 191,204.8599 182,204.8599 " fill="none" style="stroke:#181818;stroke-width:1.5;"/><line style="stroke:#181818;stroke-width:1.5;" x1="194" x2="194" y1="177.7944" y2="192.8599"/><path d="M194,177.7944 C194,168.7944 197,165.7944 206,165.7944 " fill="none" style="stroke:#181818;stroke-width:1.5;"/><line style="stroke:#181818;stroke-width:1.5;" x1="206" x2="226" y1="165.7944" y2="165.7944"/><rect fill="none" height="29.0654" style="stroke:#181818;stroke-width:0.5;" width="42" x="226" y="151.2617"/><text fill="#000000" font-family="Open Sans" font-size="14" lengthAdjust="spacing" textLength="32" x="231" y="171.2256">from</text><line style="stroke:#181818;stroke-width:1.5;" x1="268" x2="288" y1="165.7944" y2="165.7944"/><rect fill="none" height="29.0654" style="stroke:#181818;stroke-width:0.5;" width="14" x="288" y="151.2617"/><text fill="#000000" font-family="Open Sans" font-size="14" lengthAdjust="spacing" textLength="4" x="293" y="171.2256">(</text><line style="stroke:#181818;stroke-width:1.5;" x1="302" x2="322" y1="165.7944" y2="165.7944"/><rect fill="#F1F1F1" height="29.0654" rx="5" ry="5" style="stroke:#181818;stroke-width:1.5;" width="45" x="322" y="151.2617"/><text fill="#000000" font-family="Open Sans" font-size="14" lengthAdjust="spacing" textLength="35" x="327" y="171.2256">issue</text><line style="stroke:#181818;stroke-width:1.5;" x1="367" x2="387" y1="165.7944" y2="165.7944"/><rect fill="none" height="29.0654" style="stroke:#181818;stroke-width:0.5;" width="18" x="387" y="151.2617"/><text fill="#000000" font-family="Open Sans" font-size="14" lengthAdjust="spacing" textLength="8" x="392" y="171.2256">):</text><line style="stroke:#181818;stroke-width:1.5;" x1="405" x2="425" y1="165.7944" y2="165.7944"/><rect fill="#F1F1F1" height="29.0654" rx="5" ry="5" style="stroke:#181818;stroke-width:1.5;" width="86" x="425" y="151.2617"/><text fill="#000000" font-family="Open Sans" font-size="14" lengthAdjust="spacing" textLength="76" x="430" y="171.2256">description</text><ellipse cx="14" cy="165.7944" fill="none" rx="4" ry="4" style="stroke:#181818;stroke-width:2.0;"/><ellipse cx="541" cy="165.7944" fill="#181818" rx="4" ry="4" style="stroke:#181818;stroke-width:1.0;"/><line style="stroke:#181818;stroke-width:1.5;" x1="18" x2="40" y1="165.7944" y2="165.7944"/><line style="stroke:#181818;stroke-width:1.5;" x1="511" x2="537" y1="165.7944" y2="165.7944"/><path d="M522,165.7944 L522,162.7944 L528,165.7944 L522,168.7944 L522,165.7944 " fill="#181818" style="stroke:#181818;stroke-width:1.5;"/><text fill="#000000" font-family="Open Sans" font-size="14" font-weight="bold" lengthAdjust="spacing" textLength="155.625" x="10" y="249.3564">child-issue-resolution</text><line style="stroke:#181818;stroke-width:1.5;" x1="40" x2="40" y1="277.9907" y2="277.9907"/><rect fill="none" height="29.0654" style="stroke:#181818;stroke-width:0.5;" width="61" x="40" y="263.458"/><text fill="#000000" font-family="Open Sans" font-size="14" lengthAdjust="spacing" textLength="51" x="45" y="283.4219">Resolve</text><line style="stroke:#181818;stroke-width:1.5;" x1="101" x2="121" y1="277.9907" y2="277.9907"/><rect fill="none" height="29.0654" style="stroke:#181818;stroke-width:0.5;" width="97" x="145" y="263.458"/><text fill="#000000" font-family="Open Sans" font-size="14" lengthAdjust="spacing" textLength="87" x="150" y="283.4219">future action</text><line style="stroke:#181818;stroke-width:1.5;" x1="121" x2="145" y1="277.9907" y2="277.9907"/><line style="stroke:#181818;stroke-width:1.5;" x1="242" x2="288" y1="277.9907" y2="277.9907"/><rect fill="none" height="29.0654" style="stroke:#181818;stroke-width:0.5;" width="119" x="145" y="302.5234"/><text fill="#000000" font-family="Open Sans" font-size="14" lengthAdjust="spacing" textLength="109" x="150" y="322.4873">pending change</text><line style="stroke:#181818;stroke-width:1.5;" x1="264" x2="264" y1="317.0562" y2="317.0562"/><path d="M133,305.0562 C133,314.0562 136,317.0562 145,317.0562 " fill="none" style="stroke:#181818;stroke-width:1.5;"/><line style="stroke:#181818;stroke-width:1.5;" x1="133" x2="133" y1="289.9907" y2="305.0562"/><path d="M121,277.9907 C130,277.9907 133,280.9907 133,289.9907 " fill="none" style="stroke:#181818;stroke-width:1.5;"/><path d="M276,305.0562 C276,314.0562 273,317.0562 264,317.0562 " fill="none" style="stroke:#181818;stroke-width:1.5;"/><line style="stroke:#181818;stroke-width:1.5;" x1="276" x2="276" y1="289.9907" y2="305.0562"/><path d="M276,289.9907 C276,280.9907 279,277.9907 288,277.9907 " fill="none" style="stroke:#181818;stroke-width:1.5;"/><line style="stroke:#181818;stroke-width:1.5;" x1="288" x2="308" y1="277.9907" y2="277.9907"/><rect fill="none" height="29.0654" style="stroke:#181818;stroke-width:0.5;" width="22" x="308" y="263.458"/><text fill="#000000" font-family="Open Sans" font-size="14" lengthAdjust="spacing" textLength="12" x="313" y="283.4219">...</text><ellipse cx="14" cy="277.9907" fill="none" rx="4" ry="4" style="stroke:#181818;stroke-width:2.0;"/><ellipse cx="360" cy="277.9907" fill="#181818" rx="4" ry="4" style="stroke:#181818;stroke-width:1.0;"/><line style="stroke:#181818;stroke-width:1.5;" x1="18" x2="40" y1="277.9907" y2="277.9907"/><line style="stroke:#181818;stroke-width:1.5;" x1="330" x2="356" y1="277.9907" y2="277.9907"/><path d="M341,277.9907 L341,274.9907 L347,277.9907 L341,280.9907 L341,277.9907 " fill="#181818" style="stroke:#181818;stroke-width:1.5;"/><!--SRC=[PP7RQiCm38Rl_HJ2LmaqOKtBs586NO-GjQpqTEycIckMoCM7m60FFoTbZD8ROqlwlr-InyOARV549JDVagv2YneAB8MhRAd8agWH-ESL2NQ236VvHLP598rn65bfAuGt2FZYdSCFyCsKXptWAUz1bnlTbUUUXsHl0cUTHX2vbOfkMgH2qXdoYw0pTfnIgzgZUE2F3k7lOGilqEHQNbljlOL6eohNnhqBtxQl1hqWuEM3uVNHC8vZFc9Zd-WsmZQL87jOhw11RLfeFqwUaa7y6kmTGkPyO03zOPhqqsG8yzaUsdJ8WkLc1KOvdICKqbWjJrrJ8Sj48s3hoCeQKsZtciq-_W8mfqPgHRNV4ikEw_-2vs4qaHPsg7qdS5opsUsBl29NxHGf7FQBw8Mj_2nEd3qRYKsLv-hl59QJNm00]--></g></svg>