<?xml version="1.0" encoding="us-ascii" standalone="no"?><svg xmlns="http://www.w3.org/2000/svg" xmlns:xlink="http://www.w3.org/1999/xlink" contentStyleType="text/css" height="345px" preserveAspectRatio="none" style="width:540px;height:345px;background:#FFFFFF;" version="1.1" viewBox="0 0 540 345" width="540px" zoomAndPan="magnify"><defs/><g><text fill="#000000" font-family="sans-serif" font-size="14" font-weight="bold" lengthAdjust="spacing" textLength="109" x="10" y="24.5332">child-issue-title</text><line style="stroke:#181818;stroke-width:1.5;" x1="40" x2="40" y1="51.4141" y2="51.4141"/><rect fill="none" height="27.6094" style="stroke:#181818;stroke-width:0.5;" width="28" x="64" y="37.6094"/><text fill="#000000" font-family="sans-serif" font-size="14" lengthAdjust="spacing" textLength="18" x="69" y="57.1426">FA</text><line style="stroke:#181818;stroke-width:1.5;" x1="40" x2="64" y1="51.4141" y2="51.4141"/><line style="stroke:#181818;stroke-width:1.5;" x1="92" x2="117" y1="51.4141" y2="51.4141"/><rect fill="none" height="27.6094" style="stroke:#181818;stroke-width:0.5;" width="29" x="64" y="75.2188"/><text fill="#000000" font-family="sans-serif" font-size="14" lengthAdjust="spacing" textLength="19" x="69" y="94.752">PC</text><line style="stroke:#181818;stroke-width:1.5;" x1="93" x2="93" y1="89.0234" y2="89.0234"/><path d="M52,77.0234 C52,86.0234 55,89.0234 64,89.0234 " fill="none" style="stroke:#181818;stroke-width:1.5;"/><line style="stroke:#181818;stroke-width:1.5;" x1="52" x2="52" y1="63.4141" y2="77.0234"/><path d="M40,51.4141 C49,51.4141 52,54.4141 52,63.4141 " fill="none" style="stroke:#181818;stroke-width:1.5;"/><path d="M105,77.0234 C105,86.0234 102,89.0234 93,89.0234 " fill="none" style="stroke:#181818;stroke-width:1.5;"/><line style="stroke:#181818;stroke-width:1.5;" x1="105" x2="105" y1="63.4141" y2="77.0234"/><path d="M105,63.4141 C105,54.4141 108,51.4141 117,51.4141 " fill="none" style="stroke:#181818;stroke-width:1.5;"/><line style="stroke:#181818;stroke-width:1.5;" x1="117" x2="137" y1="51.4141" y2="51.4141"/><rect fill="none" height="27.6094" style="stroke:#181818;stroke-width:0.5;" width="14" x="137" y="37.6094"/><text fill="#000000" font-family="sans-serif" font-size="14" lengthAdjust="spacing" textLength="4" x="142" y="57.1426">:</text><line style="stroke:#181818;stroke-width:1.5;" x1="151" x2="171" y1="51.4141" y2="51.4141"/><rect fill="#F1F1F1" height="27.6094" rx="5" ry="5" style="stroke:#181818;stroke-width:1.5;" width="32" x="171" y="37.6094"/><text fill="#000000" font-family="sans-serif" font-size="14" lengthAdjust="spacing" textLength="22" x="176" y="57.1426">title</text><ellipse cx="14" cy="51.4141" fill="none" rx="4" ry="4" style="stroke:#181818;stroke-width:2.0;"/><ellipse cx="233" cy="51.4141" fill="#181818" rx="4" ry="4" style="stroke:#181818;stroke-width:1.0;"/><line style="stroke:#181818;stroke-width:1.5;" x1="18" x2="40" y1="51.4141" y2="51.4141"/><line style="stroke:#181818;stroke-width:1.5;" x1="203" x2="229" y1="51.4141" y2="51.4141"/><path d="M214,51.4141 L214,48.4141 L220,51.4141 L214,54.4141 L214,51.4141 " fill="#181818" style="stroke:#181818;stroke-width:1.5;"/><text fill="#000000" font-family="sans-serif" font-size="14" font-weight="bold" lengthAdjust="spacing" textLength="136" x="10" y="132.3613">child-issue-content</text><line style="stroke:#181818;stroke-width:1.5;" x1="40" x2="40" y1="159.2422" y2="159.2422"/><rect fill="none" height="27.6094" style="stroke:#181818;stroke-width:0.5;" width="94" x="64" y="145.4375"/><text fill="#000000" font-family="sans-serif" font-size="14" lengthAdjust="spacing" textLength="84" x="69" y="164.9707">Future action</text><line style="stroke:#181818;stroke-width:1.5;" x1="40" x2="64" y1="159.2422" y2="159.2422"/><line style="stroke:#181818;stroke-width:1.5;" x1="158" x2="201" y1="159.2422" y2="159.2422"/><rect fill="none" height="27.6094" style="stroke:#181818;stroke-width:0.5;" width="113" x="64" y="183.0469"/><text fill="#000000" font-family="sans-serif" font-size="14" lengthAdjust="spacing" textLength="103" x="69" y="202.5801">Pending change</text><line style="stroke:#181818;stroke-width:1.5;" x1="177" x2="177" y1="196.8516" y2="196.8516"/><path d="M52,184.8516 C52,193.8516 55,196.8516 64,196.8516 " fill="none" style="stroke:#181818;stroke-width:1.5;"/><line style="stroke:#181818;stroke-width:1.5;" x1="52" x2="52" y1="171.2422" y2="184.8516"/><path d="M40,159.2422 C49,159.2422 52,162.2422 52,171.2422 " fill="none" style="stroke:#181818;stroke-width:1.5;"/><path d="M189,184.8516 C189,193.8516 186,196.8516 177,196.8516 " fill="none" style="stroke:#181818;stroke-width:1.5;"/><line style="stroke:#181818;stroke-width:1.5;" x1="189" x2="189" y1="171.2422" y2="184.8516"/><path d="M189,171.2422 C189,162.2422 192,159.2422 201,159.2422 " fill="none" style="stroke:#181818;stroke-width:1.5;"/><line style="stroke:#181818;stroke-width:1.5;" x1="201" x2="221" y1="159.2422" y2="159.2422"/><rect fill="none" height="27.6094" style="stroke:#181818;stroke-width:0.5;" width="38" x="221" y="145.4375"/><text fill="#000000" font-family="sans-serif" font-size="14" lengthAdjust="spacing" textLength="28" x="226" y="164.9707">from</text><line style="stroke:#181818;stroke-width:1.5;" x1="259" x2="279" y1="159.2422" y2="159.2422"/><rect fill="none" height="27.6094" style="stroke:#181818;stroke-width:0.5;" width="15" x="279" y="145.4375"/><text fill="#000000" font-family="sans-serif" font-size="14" lengthAdjust="spacing" textLength="5" x="284" y="164.9707">(</text><line style="stroke:#181818;stroke-width:1.5;" x1="294" x2="314" y1="159.2422" y2="159.2422"/><rect fill="#F1F1F1" height="27.6094" rx="5" ry="5" style="stroke:#181818;stroke-width:1.5;" width="43" x="314" y="145.4375"/><text fill="#000000" font-family="sans-serif" font-size="14" lengthAdjust="spacing" textLength="33" x="319" y="164.9707">issue</text><line style="stroke:#181818;stroke-width:1.5;" x1="357" x2="377" y1="159.2422" y2="159.2422"/><rect fill="none" height="27.6094" style="stroke:#181818;stroke-width:0.5;" width="19" x="377" y="145.4375"/><text fill="#000000" font-family="sans-serif" font-size="14" lengthAdjust="spacing" textLength="9" x="382" y="164.9707">):</text><line style="stroke:#181818;stroke-width:1.5;" x1="396" x2="416" y1="159.2422" y2="159.2422"/><rect fill="#F1F1F1" height="27.6094" rx="5" ry="5" style="stroke:#181818;stroke-width:1.5;" width="79" x="416" y="145.4375"/><text fill="#000000" font-family="sans-serif" font-size="14" lengthAdjust="spacing" textLength="69" x="421" y="164.9707">description</text><ellipse cx="14" cy="159.2422" fill="none" rx="4" ry="4" style="stroke:#181818;stroke-width:2.0;"/><ellipse cx="525" cy="159.2422" fill="#181818" rx="4" ry="4" style="stroke:#181818;stroke-width:1.0;"/><line style="stroke:#181818;stroke-width:1.5;" x1="18" x2="40" y1="159.2422" y2="159.2422"/><line style="stroke:#181818;stroke-width:1.5;" x1="495" x2="521" y1="159.2422" y2="159.2422"/><path d="M506,159.2422 L506,156.2422 L512,159.2422 L506,162.2422 L506,159.2422 " fill="#181818" style="stroke:#181818;stroke-width:1.5;"/><text fill="#000000" font-family="sans-serif" font-size="14" font-weight="bold" lengthAdjust="spacing" textLength="154" x="10" y="240.1895">child-issue-resolution</text><line style="stroke:#181818;stroke-width:1.5;" x1="40" x2="40" y1="267.0703" y2="267.0703"/><rect fill="none" height="27.6094" style="stroke:#181818;stroke-width:0.5;" width="61" x="40" y="253.2656"/><text fill="#000000" font-family="sans-serif" font-size="14" lengthAdjust="spacing" textLength="51" x="45" y="272.7988">Resolve</text><line style="stroke:#181818;stroke-width:1.5;" x1="101" x2="121" y1="267.0703" y2="267.0703"/><rect fill="none" height="27.6094" style="stroke:#181818;stroke-width:0.5;" width="89" x="145" y="253.2656"/><text fill="#000000" font-family="sans-serif" font-size="14" lengthAdjust="spacing" textLength="79" x="150" y="272.7988">future action</text><line style="stroke:#181818;stroke-width:1.5;" x1="121" x2="145" y1="267.0703" y2="267.0703"/><line style="stroke:#181818;stroke-width:1.5;" x1="234" x2="281" y1="267.0703" y2="267.0703"/><rect fill="none" height="27.6094" style="stroke:#181818;stroke-width:0.5;" width="112" x="145" y="290.875"/><text fill="#000000" font-family="sans-serif" font-size="14" lengthAdjust="spacing" textLength="102" x="150" y="310.4082">pending change</text><line style="stroke:#181818;stroke-width:1.5;" x1="257" x2="257" y1="304.6797" y2="304.6797"/><path d="M133,292.6797 C133,301.6797 136,304.6797 145,304.6797 " fill="none" style="stroke:#181818;stroke-width:1.5;"/><line style="stroke:#181818;stroke-width:1.5;" x1="133" x2="133" y1="279.0703" y2="292.6797"/><path d="M121,267.0703 C130,267.0703 133,270.0703 133,279.0703 " fill="none" style="stroke:#181818;stroke-width:1.5;"/><path d="M269,292.6797 C269,301.6797 266,304.6797 257,304.6797 " fill="none" style="stroke:#181818;stroke-width:1.5;"/><line style="stroke:#181818;stroke-width:1.5;" x1="269" x2="269" y1="279.0703" y2="292.6797"/><path d="M269,279.0703 C269,270.0703 272,267.0703 281,267.0703 " fill="none" style="stroke:#181818;stroke-width:1.5;"/><line style="stroke:#181818;stroke-width:1.5;" x1="281" x2="301" y1="267.0703" y2="267.0703"/><rect fill="none" height="27.6094" style="stroke:#181818;stroke-width:0.5;" width="22" x="301" y="253.2656"/><text fill="#000000" font-family="sans-serif" font-size="14" lengthAdjust="spacing" textLength="12" x="306" y="272.7988">...</text><ellipse cx="14" cy="267.0703" fill="none" rx="4" ry="4" style="stroke:#181818;stroke-width:2.0;"/><ellipse cx="353" cy="267.0703" fill="#181818" rx="4" ry="4" style="stroke:#181818;stroke-width:1.0;"/><line style="stroke:#181818;stroke-width:1.5;" x1="18" x2="40" y1="267.0703" y2="267.0703"/><line style="stroke:#181818;stroke-width:1.5;" x1="323" x2="349" y1="267.0703" y2="267.0703"/><path d="M334,267.0703 L334,264.0703 L340,267.0703 L334,270.0703 L334,267.0703 " fill="#181818" style="stroke:#181818;stroke-width:1.5;"/><!--SRC=[PP1RQy9048NVzrSC-vI02JLAQIC5wnLIfMBLztKpqOMuAti95FhZEucK8huiksVcV6TcnyuBw_6eAoRFgYuJvLp0n2jV8xn1n1Vl77w0RwOyxW7FUG-wskYkNHhjKVkR8VXW4OJqokYR5tMfz0daMUWJTfpAcWkXU4H7Xw1xtC9BTDAgQ-kzZx3eJ1rQdLBujdqrI8Q8Lm-1ryV0D4tvY8sfqEtADhNGVhzUGOFMjT1-cZrbW_GrsWM48f0mWFump_fvDeJvR0TjEMRHShC2PuAL2ALotgfZDrJC2j48s0RjrGLp-AGPYjd7dm1ptIXhz8L-YHM7zN_3yp2PA0zVQ6aIEApP32iHQayEQTejSjZl5iaBMz4kGPo8ZPfD3N7jTmxBoIy0]--></g></svg>