<?xml version="1.0" encoding="us-ascii" standalone="no"?><svg xmlns="http://www.w3.org/2000/svg" xmlns:xlink="http://www.w3.org/1999/xlink" contentStyleType="text/css" height="262px" preserveAspectRatio="none" style="width:582px;height:262px;background:#FFFFFF;" version="1.1" viewBox="0 0 582 262" width="582px" zoomAndPan="magnify"><defs/><g><text fill="#000000" font-family="Open Sans" font-size="14" font-weight="bold" lengthAdjust="spacing" textLength="52.625" x="10" y="24.9639">commit</text><line style="stroke:#181818;stroke-width:1.5;" x1="40" x2="40" y1="69.5981" y2="69.5981"/><rect fill="#F1F1F1" height="29.0654" rx="5" ry="5" style="stroke:#181818;stroke-width:1.5;" width="49" x="40" y="55.0654"/><text fill="#000000" font-family="Open Sans" font-size="14" lengthAdjust="spacing" textLength="39" x="45" y="75.0293">prefix</text><line style="stroke:#181818;stroke-width:1.5;" x1="89" x2="109" y1="69.5981" y2="69.5981"/><path d="M117,61.5981 C117,67.5981 115,69.5981 109,69.5981 " fill="none" style="stroke:#181818;stroke-width:1.5;"/><line style="stroke:#181818;stroke-width:1.5;" x1="117" x2="117" y1="52.0654" y2="61.5981"/><path d="M117,52.0654 C117,46.0654 119,44.0654 125,44.0654 " fill="none" style="stroke:#181818;stroke-width:1.5;"/><line style="stroke:#181818;stroke-width:1.5;" x1="125" x2="277" y1="44.0654" y2="44.0654"/><path d="M183.8,44.0654 L183.8,41.0654 L189.8,44.0654 L183.8,47.0654 L183.8,44.0654 " fill="#181818" style="stroke:#181818;stroke-width:1.5;"/><path d="M285,61.5981 C285,67.5981 287,69.5981 293,69.5981 " fill="none" style="stroke:#181818;stroke-width:1.5;"/><line style="stroke:#181818;stroke-width:1.5;" x1="285" x2="285" y1="52.0654" y2="61.5981"/><path d="M277,44.0654 C283,44.0654 285,46.0654 285,52.0654 " fill="none" style="stroke:#181818;stroke-width:1.5;"/><line style="stroke:#181818;stroke-width:1.5;" x1="109" x2="124" y1="69.5981" y2="69.5981"/><line style="stroke:#181818;stroke-width:1.5;" x1="278" x2="293" y1="69.5981" y2="69.5981"/><line style="stroke:#181818;stroke-width:1.5;" x1="124" x2="124" y1="69.5981" y2="69.5981"/><rect fill="none" height="29.0654" style="stroke:#181818;stroke-width:0.5;" width="14" x="124" y="55.0654"/><text fill="#000000" font-family="Open Sans" font-size="14" lengthAdjust="spacing" textLength="4" x="129" y="75.0293">(</text><line style="stroke:#181818;stroke-width:1.5;" x1="138" x2="158" y1="69.5981" y2="69.5981"/><rect fill="#F1F1F1" height="29.0654" rx="5" ry="5" style="stroke:#181818;stroke-width:1.5;" width="86" x="158" y="55.0654"/><text fill="#000000" font-family="Open Sans" font-size="14" lengthAdjust="spacing" textLength="76" x="163" y="75.0293">component</text><line style="stroke:#181818;stroke-width:1.5;" x1="244" x2="264" y1="69.5981" y2="69.5981"/><rect fill="none" height="29.0654" style="stroke:#181818;stroke-width:0.5;" width="14" x="264" y="55.0654"/><text fill="#000000" font-family="Open Sans" font-size="14" lengthAdjust="spacing" textLength="4" x="269" y="75.0293">)</text><line style="stroke:#181818;stroke-width:1.5;" x1="293" x2="313" y1="69.5981" y2="69.5981"/><path d="M321,61.5981 C321,67.5981 319,69.5981 313,69.5981 " fill="none" style="stroke:#181818;stroke-width:1.5;"/><line style="stroke:#181818;stroke-width:1.5;" x1="321" x2="321" y1="52.0654" y2="61.5981"/><path d="M321,52.0654 C321,46.0654 323,44.0654 329,44.0654 " fill="none" style="stroke:#181818;stroke-width:1.5;"/><line style="stroke:#181818;stroke-width:1.5;" x1="329" x2="442" y1="44.0654" y2="44.0654"/><path d="M372.2,44.0654 L372.2,41.0654 L378.2,44.0654 L372.2,47.0654 L372.2,44.0654 " fill="#181818" style="stroke:#181818;stroke-width:1.5;"/><path d="M450,61.5981 C450,67.5981 452,69.5981 458,69.5981 " fill="none" style="stroke:#181818;stroke-width:1.5;"/><line style="stroke:#181818;stroke-width:1.5;" x1="450" x2="450" y1="52.0654" y2="61.5981"/><path d="M442,44.0654 C448,44.0654 450,46.0654 450,52.0654 " fill="none" style="stroke:#181818;stroke-width:1.5;"/><line style="stroke:#181818;stroke-width:1.5;" x1="313" x2="328" y1="69.5981" y2="69.5981"/><line style="stroke:#181818;stroke-width:1.5;" x1="443" x2="458" y1="69.5981" y2="69.5981"/><line style="stroke:#181818;stroke-width:1.5;" x1="328" x2="328" y1="69.5981" y2="69.5981"/><rect fill="none" height="29.0654" style="stroke:#181818;stroke-width:0.5;" width="15" x="328" y="55.0654"/><text fill="#000000" font-family="Open Sans" font-size="14" lengthAdjust="spacing" textLength="5" x="333" y="75.0293">[</text><line style="stroke:#181818;stroke-width:1.5;" x1="343" x2="363" y1="69.5981" y2="69.5981"/><rect fill="#F1F1F1" height="29.0654" rx="5" ry="5" style="stroke:#181818;stroke-width:1.5;" width="45" x="363" y="55.0654"/><text fill="#000000" font-family="Open Sans" font-size="14" lengthAdjust="spacing" textLength="35" x="368" y="75.0293">issue</text><line style="stroke:#181818;stroke-width:1.5;" x1="408" x2="428" y1="69.5981" y2="69.5981"/><rect fill="none" height="29.0654" style="stroke:#181818;stroke-width:0.5;" width="15" x="428" y="55.0654"/><text fill="#000000" font-family="Open Sans" font-size="14" lengthAdjust="spacing" textLength="5" x="433" y="75.0293">]</text><line style="stroke:#181818;stroke-width:1.5;" x1="458" x2="478" y1="69.5981" y2="69.5981"/><rect fill="#F1F1F1" height="29.0654" rx="5" ry="5" style="stroke:#181818;stroke-width:1.5;" width="59" x="478" y="55.0654"/><text fill="#000000" font-family="Open Sans" font-size="14" lengthAdjust="spacing" textLength="49" x="483" y="75.0293">change</text><ellipse cx="14" cy="69.5981" fill="none" rx="4" ry="4" style="stroke:#181818;stroke-width:2.0;"/><ellipse cx="567" cy="69.5981" fill="#181818" rx="4" ry="4" style="stroke:#181818;stroke-width:1.0;"/><line style="stroke:#181818;stroke-width:1.5;" x1="18" x2="40" y1="69.5981" y2="69.5981"/><line style="stroke:#181818;stroke-width:1.5;" x1="537" x2="563" y1="69.5981" y2="69.5981"/><path d="M548,69.5981 L548,66.5981 L554,69.5981 L548,72.5981 L548,69.5981 " fill="#181818" style="stroke:#181818;stroke-width:1.5;"/><text fill="#000000" font-family="Open Sans" font-size="14" font-weight="bold" lengthAdjust="spacing" textLength="71.9375" x="10" y="114.0947">in-commit</text><line style="stroke:#181818;stroke-width:1.5;" x1="40" x2="40" y1="142.729" y2="142.729"/><rect fill="none" height="29.0654" style="stroke:#181818;stroke-width:0.5;" width="77" x="40" y="128.1963"/><text fill="#000000" font-family="Open Sans" font-size="14" lengthAdjust="spacing" textLength="67" x="45" y="148.1602">In commit</text><line style="stroke:#181818;stroke-width:1.5;" x1="117" x2="137" y1="142.729" y2="142.729"/><rect fill="none" height="29.0654" style="stroke:#181818;stroke-width:0.5;" width="14" x="137" y="128.1963"/><text fill="#000000" font-family="Open Sans" font-size="14" lengthAdjust="spacing" textLength="4" x="142" y="148.1602">(</text><line style="stroke:#181818;stroke-width:1.5;" x1="151" x2="171" y1="142.729" y2="142.729"/><rect fill="#F1F1F1" height="29.0654" rx="5" ry="5" style="stroke:#181818;stroke-width:1.5;" width="60" x="171" y="128.1963"/><text fill="#000000" font-family="Open Sans" font-size="14" lengthAdjust="spacing" textLength="50" x="176" y="148.1602">commit</text><line style="stroke:#181818;stroke-width:1.5;" x1="231" x2="251" y1="142.729" y2="142.729"/><rect fill="none" height="29.0654" style="stroke:#181818;stroke-width:0.5;" width="18" x="251" y="128.1963"/><text fill="#000000" font-family="Open Sans" font-size="14" lengthAdjust="spacing" textLength="8" x="256" y="148.1602">):</text><line style="stroke:#181818;stroke-width:1.5;" x1="269" x2="289" y1="142.729" y2="142.729"/><rect fill="none" height="29.0654" style="stroke:#181818;stroke-width:0.5;" width="193" x="313" y="128.1963"/><text fill="#000000" font-family="Open Sans" font-size="14" lengthAdjust="spacing" textLength="183" x="318" y="148.1602">address proposed problem</text><line style="stroke:#181818;stroke-width:1.5;" x1="289" x2="313" y1="142.729" y2="142.729"/><line style="stroke:#181818;stroke-width:1.5;" x1="506" x2="530" y1="142.729" y2="142.729"/><rect fill="none" height="29.0654" style="stroke:#181818;stroke-width:0.5;" width="173" x="313" y="167.2617"/><text fill="#000000" font-family="Open Sans" font-size="14" lengthAdjust="spacing" textLength="163" x="318" y="187.2256">apply proposed solution</text><path d="M301,169.7944 C301,178.7944 304,181.7944 313,181.7944 " fill="none" style="stroke:#181818;stroke-width:1.5;"/><line style="stroke:#181818;stroke-width:1.5;" x1="486" x2="506" y1="181.7944" y2="181.7944"/><path d="M518,169.7944 C518,178.7944 515,181.7944 506,181.7944 " fill="none" style="stroke:#181818;stroke-width:1.5;"/><rect fill="none" height="29.0654" style="stroke:#181818;stroke-width:1.0;stroke-dasharray:5.0,5.0;" width="103" x="313" y="206.3271"/><text fill="#000000" font-family="Open Sans" font-size="14" lengthAdjust="spacing" textLength="93" x="318" y="226.291">other reasons</text><line style="stroke:#181818;stroke-width:1.5;" x1="416" x2="506" y1="220.8599" y2="220.8599"/><path d="M459,220.8599 L459,217.8599 L465,220.8599 L459,223.8599 L459,220.8599 " fill="#181818" style="stroke:#181818;stroke-width:1.5;"/><path d="M301,208.8599 C301,217.8599 304,220.8599 313,220.8599 " fill="none" style="stroke:#181818;stroke-width:1.5;"/><line style="stroke:#181818;stroke-width:1.5;" x1="301" x2="301" y1="154.729" y2="208.8599"/><path d="M289,142.729 C298,142.729 301,145.729 301,154.729 " fill="none" style="stroke:#181818;stroke-width:1.5;"/><path d="M518,208.8599 C518,217.8599 515,220.8599 506,220.8599 " fill="none" style="stroke:#181818;stroke-width:1.5;"/><line style="stroke:#181818;stroke-width:1.5;" x1="518" x2="518" y1="154.729" y2="208.8599"/><path d="M518,154.729 C518,145.729 521,142.729 530,142.729 " fill="none" style="stroke:#181818;stroke-width:1.5;"/><ellipse cx="14" cy="142.729" fill="none" rx="4" ry="4" style="stroke:#181818;stroke-width:2.0;"/><ellipse cx="560" cy="142.729" fill="#181818" rx="4" ry="4" style="stroke:#181818;stroke-width:1.0;"/><line style="stroke:#181818;stroke-width:1.5;" x1="18" x2="40" y1="142.729" y2="142.729"/><line style="stroke:#181818;stroke-width:1.5;" x1="530" x2="556" y1="142.729" y2="142.729"/><path d="M541,142.729 L541,139.729 L547,142.729 L541,145.729 L541,142.729 " fill="#181818" style="stroke:#181818;stroke-width:1.5;"/><!--SRC=[HL1TQy8m57tFhxZaoKALMMLibQ4udQnJ9lFZHNo8zbR3sfkIf39XFtwtYlCjvoFd96VWlB8UTvG9zwsfL5OLa6AcgjndXZof0a5-baYmKEIas9kYq1vUeBIOwPyGDh8XGs2wD8JaGnd8RSrkcDNELHY2tDRK_gZeW3sXgVaV8jy9he3Tjo1638AOKKEgDBNe7DUPqZXCwyCknqB2BqXLbldvBZcJLruRghM-yKUqO54vGwuVzCG0ARryLCnpHNurcy89hMC_j5lHGzHfFJUM5K9ICT61TZUEsd7KXV5e2RKSYCPaFkMIokuHKksyrRjBNo0ITLBmLP7N1SPGpvMCFcu4ZEcahQ62vn79UdOtF7QRGzvXWPPV0kkP65sNvnjxasewnB1QlZMVn9IdgzI1iv74g-5SUuvXClm3]--></g></svg>